<svg width="15" height="15" viewBox="0 0 15 15" fill="none" xmlns="http://www.w3.org/2000/svg">
    <path
        d="M5.9375 1.59375C5.625 1.90625 5.65625 2.375 5.9375 2.6875L9.71875 6.25H0.75C0.3125 6.25 0 6.59375 0 7V8C0 8.4375 0.3125 8.75 0.75 8.75H9.71875L5.9375 12.3438C5.65625 12.6562 5.65625 13.125 5.9375 13.4375L6.625 14.125C6.9375 14.4062 7.40625 14.4062 7.6875 14.125L13.7812 8.03125C14.0625 7.75 14.0625 7.28125 13.7812 6.96875L7.6875 0.90625C7.40625 0.625 6.9375 0.625 6.625 0.90625L5.9375 1.59375Z"
        fill="#313131" />
</svg>