<svg width="28" height="29" viewBox="0 0 28 29" fill="none" xmlns="http://www.w3.org/2000/svg">
<path d="M14 9.6875C11.3203 9.6875 9.1875 11.875 9.1875 14.5C9.1875 17.1797 11.3203 19.3125 14 19.3125C16.625 19.3125 18.8125 17.1797 18.8125 14.5C18.8125 11.875 16.625 9.6875 14 9.6875ZM14 16.6875C12.7422 16.6875 11.8125 15.7578 11.8125 14.5C11.8125 13.2969 12.7422 12.3125 14 12.3125C15.2031 12.3125 16.1875 13.2969 16.1875 14.5C16.1875 15.7578 15.2031 16.6875 14 16.6875ZM27.125 13.1875H24.3906C23.7891 8.48438 20.0156 4.71094 15.3125 4.10938V1.375C15.3125 0.9375 14.875 0.5 14.4375 0.5H13.5625C13.0703 0.5 12.6875 0.9375 12.6875 1.375V4.10938C7.92969 4.71094 4.15625 8.48438 3.55469 13.1875H0.875C0.382812 13.1875 0 13.625 0 14.0625V14.9375C0 15.4297 0.382812 15.8125 0.875 15.8125H3.55469C4.15625 20.5703 7.92969 24.3438 12.6875 24.9453V27.625C12.6875 28.1172 13.0703 28.5 13.5625 28.5H14.4375C14.875 28.5 15.3125 28.1172 15.3125 27.625V24.9453C20.0156 24.3438 23.7891 20.5703 24.3906 15.8125H27.125C27.5625 15.8125 28 15.4297 28 14.9375V14.0625C28 13.625 27.5625 13.1875 27.125 13.1875ZM14 22.375C9.625 22.375 6.125 18.875 6.125 14.5C6.125 10.1797 9.625 6.625 14 6.625C18.3203 6.625 21.875 10.1797 21.875 14.5C21.875 18.875 18.3203 22.375 14 22.375Z" fill="#CC380D"/>
</svg>
