<svg width="25" height="25" viewBox="0 0 25 25" fill="none" xmlns="http://www.w3.org/2000/svg">
<path d="M22.75 0.25H1.69531C0.765625 0.25 0 1.07031 0 2.05469V23C0 23.9844 0.765625 24.75 1.69531 24.75H22.75C23.6797 24.75 24.5 23.9844 24.5 23V2.05469C24.5 1.07031 23.6797 0.25 22.75 0.25ZM7.38281 21.25H3.77344V9.60156H7.38281V21.25ZM5.57812 7.96094C4.375 7.96094 3.44531 7.03125 3.44531 5.88281C3.44531 4.73438 4.375 3.75 5.57812 3.75C6.72656 3.75 7.65625 4.73438 7.65625 5.88281C7.65625 7.03125 6.72656 7.96094 5.57812 7.96094ZM21 21.25H17.3359V15.5625C17.3359 14.25 17.3359 12.5 15.4766 12.5C13.5625 12.5 13.2891 13.9766 13.2891 15.5078V21.25H9.67969V9.60156H13.125V11.1875H13.1797C13.6719 10.2578 14.875 9.27344 16.625 9.27344C20.2891 9.27344 21 11.7344 21 14.8516V21.25Z" fill="white"/>
</svg>
