<svg width="31" height="29" viewBox="0 0 31 29" fill="none" xmlns="http://www.w3.org/2000/svg">
<path d="M28.9453 12.7502C28.5078 6.18765 23.3125 0.99234 16.75 0.55484C16.75 0.55484 16.75 0.500153 16.6953 0.500153C16.2578 0.500153 15.875 0.937653 15.875 1.42984V13.6252H28.0703C28.5625 13.6252 29 13.2423 28.9453 12.7502ZM18.5 11.0002V3.45328C22.1641 4.38297 25.1172 7.33609 26.0469 11.0002H18.5ZM13.25 16.2502V3.28922C13.25 2.79703 12.8125 2.41422 12.375 2.41422C12.3203 2.41422 12.2656 2.41422 12.2656 2.41422C5.70312 3.3439 0.726562 9.0314 1 15.8673C1.21875 22.8127 7.17969 28.5002 14.125 28.5002C14.1797 28.5002 14.2344 28.5002 14.2891 28.5002C17.0234 28.5002 19.5938 27.6252 21.6719 26.0939C22.1094 25.8205 22.1094 25.1642 21.7266 24.7814L13.25 16.2502ZM14.2344 25.8752H14.125C8.60156 25.8752 3.78906 21.2814 3.625 15.758C3.46094 11.1095 6.35938 7.00797 10.625 5.5314V17.3439L11.3906 18.1095L18.2812 25.0548C17.0234 25.6017 15.6562 25.8752 14.2344 25.8752ZM29.8203 16.2502H16.8594L25.5 24.9455C25.6641 25.1095 25.8828 25.1642 26.1562 25.1642C26.3203 25.1642 26.5391 25.1095 26.7031 24.9455C28.8359 22.9767 30.3125 20.297 30.6953 17.2345C30.8047 16.7423 30.3672 16.2502 29.8203 16.2502Z" fill="#5452F6"/>
</svg>
