<svg width="25" height="29" viewBox="0 0 25 29" fill="none" xmlns="http://www.w3.org/2000/svg">
<path d="M17.1172 17.125C15.5312 17.125 14.8203 18 12.25 18C9.625 18 8.91406 17.125 7.32812 17.125C3.28125 17.125 0 20.4609 0 24.5078V25.875C0 27.3516 1.14844 28.5 2.625 28.5H21.875C23.2969 28.5 24.5 27.3516 24.5 25.875V24.5078C24.5 20.4609 21.1641 17.125 17.1172 17.125ZM21.875 25.875H2.625V24.5078C2.625 21.8828 4.70312 19.75 7.32812 19.75C8.14844 19.75 9.40625 20.625 12.25 20.625C15.0391 20.625 16.2969 19.75 17.1172 19.75C19.7422 19.75 21.875 21.8828 21.875 24.5078V25.875ZM12.25 16.25C16.5703 16.25 20.125 12.75 20.125 8.375C20.125 4.05469 16.5703 0.5 12.25 0.5C7.875 0.5 4.375 4.05469 4.375 8.375C4.375 12.75 7.875 16.25 12.25 16.25ZM12.25 3.125C15.0938 3.125 17.5 5.53125 17.5 8.375C17.5 11.2734 15.0938 13.625 12.25 13.625C9.35156 13.625 7 11.2734 7 8.375C7 5.53125 9.35156 3.125 12.25 3.125Z" fill="#CC380D"/>
</svg>
