<svg width="25" height="29" viewBox="0 0 25 29" fill="none" xmlns="http://www.w3.org/2000/svg">
<path d="M7 8.59387C7 8.97668 7.27344 9.25012 7.65625 9.25012H9.84375C10.1719 9.25012 10.5 8.97668 10.5 8.59387V6.40637C10.5 6.07825 10.1719 5.75012 9.84375 5.75012H7.65625C7.27344 5.75012 7 6.07825 7 6.40637V8.59387ZM14.6562 9.25012H16.8438C17.1719 9.25012 17.5 8.97668 17.5 8.59387V6.40637C17.5 6.07825 17.1719 5.75012 16.8438 5.75012H14.6562C14.2734 5.75012 14 6.07825 14 6.40637V8.59387C14 8.97668 14.2734 9.25012 14.6562 9.25012ZM7.65625 14.5001H9.84375C10.1719 14.5001 10.5 14.2267 10.5 13.8439V11.6564C10.5 11.3282 10.1719 11.0001 9.84375 11.0001H7.65625C7.27344 11.0001 7 11.3282 7 11.6564V13.8439C7 14.2267 7.27344 14.5001 7.65625 14.5001ZM14.6562 14.5001H16.8438C17.1719 14.5001 17.5 14.2267 17.5 13.8439V11.6564C17.5 11.3282 17.1719 11.0001 16.8438 11.0001H14.6562C14.2734 11.0001 14 11.3282 14 11.6564V13.8439C14 14.2267 14.2734 14.5001 14.6562 14.5001ZM10.5 19.0939V16.9064C10.5 16.5782 10.1719 16.2501 9.84375 16.2501H7.65625C7.27344 16.2501 7 16.5782 7 16.9064V19.0939C7 19.4767 7.27344 19.7501 7.65625 19.7501H9.84375C10.1719 19.7501 10.5 19.4767 10.5 19.0939ZM14.6562 19.7501H16.8438C17.1719 19.7501 17.5 19.4767 17.5 19.0939V16.9064C17.5 16.5782 17.1719 16.2501 16.8438 16.2501H14.6562C14.2734 16.2501 14 16.5782 14 16.9064V19.0939C14 19.4767 14.2734 19.7501 14.6562 19.7501ZM24.5 26.5314C24.5 26.2032 24.1719 25.8751 23.8438 25.8751H22.75V1.81262C22.75 1.10168 22.1484 0.500122 21.4375 0.500122H3.00781C2.29688 0.500122 1.69531 1.10168 1.69531 1.81262V25.8751H0.65625C0.273438 25.8751 0 26.2032 0 26.5314V28.5001H24.5V26.5314ZM4.32031 25.8204L4.375 3.12512L20.125 3.17981V25.8204H14V22.1564C14 21.8282 13.6719 21.5001 13.3438 21.5001H11.1562C10.7734 21.5001 10.5 21.8282 10.5 22.1564V25.8204H4.32031Z" fill="#CC380D"/>
</svg>
