<svg width="28" height="29" viewBox="0 0 28 29" fill="none" xmlns="http://www.w3.org/2000/svg">
<path d="M14 0.9375C6.50781 0.9375 0.4375 7.0625 0.4375 14.5C0.4375 21.9922 6.50781 28.0625 14 28.0625C21.4375 28.0625 27.5625 21.9922 27.5625 14.5C27.5625 7.0625 21.4375 0.9375 14 0.9375ZM14 25.4375C7.92969 25.4375 3.0625 20.5703 3.0625 14.5C3.0625 8.48438 7.92969 3.5625 14 3.5625C20.0156 3.5625 24.9375 8.48438 24.9375 14.5C24.9375 20.5703 20.0156 25.4375 14 25.4375ZM20.0156 21.0078C17.1172 15.7031 17.2812 15.9766 17.1172 15.7578C18.4297 14.9922 19.25 13.4609 19.25 11.7109C19.25 8.86719 17.6094 7.0625 13.7266 7.0625H9.40625C9.02344 7.0625 8.75 7.39062 8.75 7.71875V21.2812C8.75 21.6641 9.02344 21.9375 9.40625 21.9375H11.5391C11.8672 21.9375 12.1953 21.6641 12.1953 21.2812V16.7422H13.9453L16.5156 21.6094C16.625 21.8281 16.8438 21.9922 17.1172 21.9922V21.9375H19.4141C19.9609 21.9375 20.2344 21.4453 20.0156 21.0078ZM14 13.625H12.1953V10.125H13.6719C15.4219 10.125 15.8047 10.7812 15.8047 11.875C15.8047 13.0234 15.1484 13.625 14 13.625Z" fill="#CC380D"/>
</svg>
