<svg width="21" height="29" viewBox="0 0 21 29" fill="none" xmlns="http://www.w3.org/2000/svg">
<path d="M16.1875 22.3751H11.8125C11.5391 22.3751 11.375 22.5939 11.375 22.8126V23.6876C11.375 23.9611 11.5391 24.1251 11.8125 24.1251H16.1875C16.4062 24.1251 16.625 23.9611 16.625 23.6876V22.8126C16.625 22.5939 16.4062 22.3751 16.1875 22.3751ZM4.375 13.6251V18.8751C4.375 19.3673 4.75781 19.7501 5.25 19.7501H15.75C16.1875 19.7501 16.625 19.3673 16.625 18.8751V13.6251C16.625 13.1876 16.1875 12.7501 15.75 12.7501H5.25C4.75781 12.7501 4.375 13.1876 4.375 13.6251ZM6.125 14.5001H14.875V18.0001H6.125V14.5001ZM20.1797 5.8595L15.5859 1.32043C15.0938 0.828247 14.4375 0.500122 13.7812 0.500122H2.57031C1.14844 0.55481 0 1.70325 0 3.17981V25.9298C0 27.3517 1.14844 28.5001 2.57031 28.5001H18.3203C19.7969 28.5001 21 27.3517 21 25.9298V7.71887C21 7.06262 20.6719 6.35168 20.1797 5.8595ZM13.9453 3.34387L18.1562 7.55481H13.9453V3.34387ZM18.375 25.9298H2.57031V3.17981H11.3203V8.86731C11.3203 9.57825 11.9219 10.1798 12.6328 10.1798H18.375V25.9298ZM4.8125 6.62512H9.1875C9.40625 6.62512 9.625 6.46106 9.625 6.18762V5.31262C9.625 5.09387 9.40625 4.87512 9.1875 4.87512H4.8125C4.53906 4.87512 4.375 5.09387 4.375 5.31262V6.18762C4.375 6.46106 4.53906 6.62512 4.8125 6.62512ZM4.8125 10.1251H9.1875C9.40625 10.1251 9.625 9.96106 9.625 9.68762V8.81262C9.625 8.59387 9.40625 8.37512 9.1875 8.37512H4.8125C4.53906 8.37512 4.375 8.59387 4.375 8.81262V9.68762C4.375 9.96106 4.53906 10.1251 4.8125 10.1251Z" fill="#CC380D"/>
</svg>
