<svg width="18" height="21" viewBox="0 0 18 21" fill="none" xmlns="http://www.w3.org/2000/svg">
<path d="M2.5 9.25V6.75C2.5 6.08594 1.91406 5.5 1.25 5.5C0.546875 5.5 0 6.08594 0 6.75V9.25C0 9.95312 0.546875 10.5 1.25 10.5C1.91406 10.5 2.5 9.95312 2.5 9.25ZM16.25 5.5C15.5469 5.5 15 6.08594 15 6.75V9.25C15 9.95312 15.5469 10.5 16.25 10.5C16.9141 10.5 17.5 9.95312 17.5 9.25V6.75C17.5 6.08594 16.9141 5.5 16.25 5.5ZM15.7031 12.0234C15.4297 11.1641 14.6484 10.5781 13.75 10.5391V3C13.75 1.63281 12.6172 0.5 11.25 0.5H6.25C4.84375 0.5 3.75 1.63281 3.75 3V10.5391C2.8125 10.5781 2.03125 11.1641 1.75781 12.0234L1.32812 13.2734C1.13281 13.9375 1.25 14.6797 1.64062 15.2266C2.07031 15.8125 2.73438 16.125 3.4375 16.125H7.8125V18.1172C6.5625 18.2734 5.54688 18.8594 5.07812 19.6016C4.80469 19.9922 5.15625 20.5 5.66406 20.5H11.7969C12.3047 20.5 12.6562 19.9922 12.3828 19.6016C11.9141 18.8594 10.8984 18.2734 9.6875 18.1172V16.125H14.0625C14.7266 16.125 15.3906 15.8125 15.8203 15.2266C16.2109 14.6797 16.3281 13.9375 16.1328 13.2734L15.7031 12.0234ZM5.625 3C5.625 2.6875 5.89844 2.375 6.25 2.375H11.25C11.5625 2.375 11.875 2.6875 11.875 3V10.5H5.625V3ZM14.0625 14.25H3.4375C3.20312 14.25 3.04688 14.0547 3.125 13.8594L3.55469 12.6094C3.59375 12.4922 3.71094 12.375 3.82812 12.375H13.6328C13.75 12.375 13.8672 12.4922 13.9062 12.6094L14.3359 13.8594C14.4141 14.0547 14.2578 14.25 14.0625 14.25Z" fill="#048926"/>
</svg>
