<svg width="29" height="29" viewBox="0 0 29 29" fill="none" xmlns="http://www.w3.org/2000/svg">
<path d="M27.0312 1.75797L21.8906 0.609528C20.6875 0.33609 19.4844 0.937653 19.0469 2.0314L16.6406 7.60953C16.2031 8.5939 16.4766 9.79703 17.3516 10.508L19.5391 12.3127C18.0078 15.1564 15.6016 17.508 12.7578 19.0939L10.9531 16.9064C10.2422 16.0314 9.03906 15.758 8.05469 16.1955L2.47656 18.547C1.38281 19.0392 0.78125 20.2423 1.05469 21.4455L2.20312 26.5861C2.47656 27.7345 3.51562 28.5002 4.66406 28.5002C18.0625 28.5002 29 17.672 29 4.2189C29 3.07047 28.1797 2.0314 27.0312 1.75797ZM4.77344 25.8752L3.625 20.9533L8.98438 18.6564L12.0469 22.3752C17.4609 19.8048 20.25 17.0158 22.8203 11.6017L19.1016 8.53922L21.3984 3.17984L26.375 4.32828C26.3203 16.1955 16.6406 25.8205 4.77344 25.8752Z" fill="#5452F6"/>
</svg>
