<svg width="32" height="26" viewBox="0 0 32 26" fill="none" xmlns="http://www.w3.org/2000/svg">
<path d="M27.0469 3.05469C23.875 0.375 19.0078 0.757812 16 3.875C12.9375 0.757812 8.07031 0.375 4.89844 3.05469C0.796875 6.5 1.39844 12.1328 4.35156 15.1406L13.9219 24.9297C14.4688 25.4766 15.1797 25.8047 16 25.8047C16.7656 25.8047 17.4766 25.4766 18.0234 24.9297L27.6484 15.1406C30.5469 12.1328 31.1484 6.5 27.0469 3.05469ZM25.7344 13.2812L16.1641 23.0703C16.0547 23.1797 15.9453 23.1797 15.7812 23.0703L6.21094 13.2812C4.1875 11.2578 3.80469 7.42969 6.59375 5.07812C8.72656 3.27344 12.0078 3.54688 14.0859 5.625L16 7.59375L17.9141 5.625C19.9375 3.54688 23.2188 3.27344 25.3516 5.02344C28.1406 7.42969 27.7578 11.2578 25.7344 13.2812Z" fill="#CC380D"/>
</svg>
