<svg width="25" height="29" viewBox="0 0 25 29" fill="none" xmlns="http://www.w3.org/2000/svg">
<path d="M23.6797 11.1094L20.8906 8.32031C20.3984 7.82812 19.7422 7.5 19.0312 7.5H17.5V4.875C17.5 3.45312 16.2969 2.25 14.875 2.25H11.4844C10.9922 1.26562 9.95312 0.5 8.75 0.5C7.49219 0.5 6.45312 1.26562 5.96094 2.25H2.625C1.14844 2.25 0 3.45312 0 4.875V20.625C0 22.1016 1.14844 23.25 2.625 23.25H7V25.875C7 27.3516 8.14844 28.5 9.625 28.5H21.875C23.2969 28.5 24.5 27.3516 24.5 25.875V12.9688C24.5 12.2578 24.1719 11.6016 23.6797 11.1094ZM19.0859 10.2344L21.7656 12.9141C21.8203 12.9688 21.875 13.0234 21.875 13.1328V13.625H18.375V10.125H18.8672C18.9766 10.125 19.0312 10.1797 19.0859 10.2344ZM8.75 2.57812C9.24219 2.57812 9.73438 3.07031 9.73438 3.5625C9.73438 4.10938 9.24219 4.54688 8.75 4.54688C8.20312 4.54688 7.76562 4.10938 7.76562 3.5625C7.76562 3.07031 8.20312 2.57812 8.75 2.57812ZM7 10.125V20.625H2.95312C2.73438 20.625 2.625 20.5156 2.625 20.2969V5.20312C2.625 5.03906 2.73438 4.875 2.95312 4.875H5.96094C6.45312 5.91406 7.49219 6.625 8.75 6.625C9.95312 6.625 10.9922 5.91406 11.4844 4.875H14.5469C14.7109 4.875 14.875 5.03906 14.875 5.20312V7.5H9.625C8.14844 7.5 7 8.70312 7 10.125ZM21.5469 25.875H9.95312C9.73438 25.875 9.625 25.7656 9.625 25.5469V10.4531C9.625 10.2891 9.73438 10.125 9.95312 10.125H15.75V14.9375C15.75 15.7031 16.2969 16.25 17.0625 16.25H21.875V25.5469C21.875 25.7656 21.7109 25.875 21.5469 25.875Z" fill="#CC380D"/>
</svg>
