<svg width="18" height="29" viewBox="0 0 18 29" fill="none" xmlns="http://www.w3.org/2000/svg">
<path d="M12.5391 13.7891L6.19531 11.9297C5.32031 11.7109 4.66406 11 4.5 10.125C4.28125 8.70312 5.375 7.5 6.74219 7.5H10.7344C11.6094 7.5 12.4844 7.77344 13.1953 8.32031C13.5234 8.53906 14.0156 8.48438 14.2891 8.21094L15.5469 6.95312C15.9297 6.57031 15.875 5.96875 15.4922 5.64062C14.125 4.60156 12.4844 4 10.7344 4H10.625V1.375C10.625 0.9375 10.1875 0.5 9.75 0.5H8C7.50781 0.5 7.125 0.9375 7.125 1.375V4H6.96094C4.28125 4 1.76562 5.75 1.16406 8.375C0.398438 11.4375 2.25781 14.4453 5.15625 15.2656L11.5 17.125C12.375 17.3438 13.0859 18.0547 13.1953 18.9297C13.4141 20.2969 12.3203 21.5 11.0078 21.5H6.96094C6.08594 21.5 5.21094 21.2266 4.5 20.7344C4.17188 20.5156 3.67969 20.5703 3.40625 20.8438L2.14844 22.1016C1.76562 22.4844 1.82031 23.0859 2.20312 23.4141C3.57031 24.4531 5.21094 25 6.96094 25H7.125V27.625C7.125 28.1172 7.50781 28.5 8 28.5H9.75C10.1875 28.5 10.625 28.1172 10.625 27.625V25H10.7344C13.4141 25 15.9297 23.3047 16.5312 20.6797C17.2969 17.6172 15.4375 14.6094 12.5391 13.7891Z" fill="#CC380D"/>
</svg>
