<svg width="25" height="21" viewBox="0 0 25 21" fill="none" xmlns="http://www.w3.org/2000/svg">
<path d="M8.75 11.75C11.8359 11.75 14.375 9.25 14.375 6.125C14.375 3.03906 11.8359 0.5 8.75 0.5C5.625 0.5 3.125 3.03906 3.125 6.125C3.125 9.25 5.625 11.75 8.75 11.75ZM8.75 2.375C10.7812 2.375 12.5 4.09375 12.5 6.125C12.5 8.19531 10.7812 9.875 8.75 9.875C6.67969 9.875 5 8.19531 5 6.125C5 4.09375 6.67969 2.375 8.75 2.375ZM12.2266 12.375C11.0938 12.375 10.5859 13 8.75 13C6.875 13 6.36719 12.375 5.23438 12.375C2.34375 12.375 0 14.7578 0 17.6484V18.625C0 19.6797 0.820312 20.5 1.875 20.5H15.625C16.6406 20.5 17.5 19.6797 17.5 18.625V17.6484C17.5 14.7578 15.1172 12.375 12.2266 12.375ZM15.625 18.625H1.875V17.6484C1.875 15.7734 3.35938 14.25 5.23438 14.25C5.82031 14.25 6.71875 14.875 8.75 14.875C10.7422 14.875 11.6406 14.25 12.2266 14.25C14.1016 14.25 15.625 15.7734 15.625 17.6484V18.625ZM24.375 8.9375H21.5625V6.125C21.5625 5.8125 21.25 5.5 20.9375 5.5H20.3125C19.9609 5.5 19.6875 5.8125 19.6875 6.125V8.9375H16.875C16.5234 8.9375 16.25 9.25 16.25 9.5625V10.1875C16.25 10.5391 16.5234 10.8125 16.875 10.8125H19.6875V13.625C19.6875 13.9766 19.9609 14.25 20.3125 14.25H20.9375C21.25 14.25 21.5625 13.9766 21.5625 13.625V10.8125H24.375C24.6875 10.8125 25 10.5391 25 10.1875V9.5625C25 9.25 24.6875 8.9375 24.375 8.9375Z" fill="#048926"/>
</svg>
