<svg width="25" height="16" viewBox="0 0 25 16" fill="none" xmlns="http://www.w3.org/2000/svg">
<path d="M20.2734 2.5L18.3984 0.664062C18.0078 0.273438 17.4609 0 16.875 0H8.00781C7.42188 0 6.875 0.234375 6.44531 0.664062L4.60938 2.5H0V12.5H2.5C3.16406 12.5 3.71094 11.9531 3.71094 11.25H4.10156L7.38281 14.2578C8.59375 15.2344 10.2734 15.2344 11.5234 14.4141C11.9922 14.8047 12.5391 15 13.125 15C13.8281 15 14.4922 14.7266 15.0391 14.0625C15.8984 14.4141 16.9141 14.1797 17.5391 13.4375L18.5547 12.1484C18.75 11.875 18.9062 11.6016 18.9844 11.25H21.25C21.25 11.9531 21.7969 12.5 22.5 12.5H25V2.5H20.2734ZM1.875 11.25C1.52344 11.25 1.25 10.9766 1.25 10.625C1.25 10.2734 1.52344 10 1.875 10C2.1875 10 2.5 10.2734 2.5 10.625C2.5 10.9766 2.1875 11.25 1.875 11.25ZM17.1094 10.9766L16.0547 12.2266C15.9766 12.3828 15.7812 12.3828 15.625 12.3047L14.6875 11.5234L13.5156 12.9688C13.2812 13.2422 12.9297 13.125 12.8125 13.0469L11.3672 11.8359L10.7812 12.5781C10.2344 13.2422 9.25781 13.3203 8.63281 12.8125L4.80469 9.375H3.75V4.375H5.35156L7.77344 1.99219C7.85156 1.95312 7.92969 1.91406 8.00781 1.875H10.2344L8.71094 3.28125C7.53906 4.33594 7.5 6.09375 8.51562 7.22656C9.10156 7.85156 10.9375 8.82812 12.5 7.42188L12.8125 7.10938L17.0312 10.5469C17.1875 10.6641 17.1875 10.8594 17.1094 10.9766ZM21.25 9.375H18.5156C18.4375 9.29688 18.3203 9.17969 18.2422 9.10156L14.2188 5.82031L14.6875 5.39062C14.9609 5.15625 14.9609 4.76562 14.7266 4.49219L14.3359 4.0625C14.1016 3.78906 13.6719 3.78906 13.4375 4.02344L11.2891 5.97656C10.8984 6.32812 10.2734 6.36719 9.92188 5.97656C9.57031 5.58594 9.60938 5 9.96094 4.64844L12.5391 2.30469C12.8125 2.03125 13.2031 1.91406 13.5938 1.91406L16.875 1.875C16.9531 1.875 17.0312 1.91406 17.0703 1.99219L19.4922 4.375H21.25V9.375ZM23.125 11.25C22.7734 11.25 22.5 10.9766 22.5 10.625C22.5 10.2734 22.7734 10 23.125 10C23.4375 10 23.75 10.2734 23.75 10.625C23.75 10.9766 23.4375 11.25 23.125 11.25Z" fill="#048926"/>
</svg>
