<svg width="23" height="29" viewBox="0 0 23 29" fill="none" xmlns="http://www.w3.org/2000/svg">
<path d="M21.6172 9.6875C21.1797 8.92188 20.3594 8.42969 19.4844 8.42969H14.2891L15.875 3.67188C16.0938 2.90625 15.9297 2.14062 15.4375 1.48438C14.9453 0.882812 14.2344 0.5 13.4688 0.5H6.30469C5.04688 0.5 4.00781 1.48438 3.84375 2.57812L1 14.1719C0.890625 14.9375 1.10938 15.6484 1.60156 16.25C2.09375 16.7969 2.85938 17.125 3.625 17.125H8.98438L7.07031 25.4375C6.90625 26.2031 7.07031 26.9688 7.50781 27.5703C8 28.1719 8.71094 28.5 9.47656 28.5C10.4062 28.5 11.2266 28.0625 11.6094 27.3516L21.6172 12.2031C22.1094 11.4375 22.1094 10.5078 21.6172 9.6875ZM9.75 25.5469L12.2656 14.5H3.57031L6.30469 3.125H13.3047L10.6797 11.0547H19.2656L9.75 25.5469Z" fill="#5A47DF"/>
</svg>
