<svg width="27" height="27" viewBox="0 0 27 27" fill="none" xmlns="http://www.w3.org/2000/svg">
<rect width="27" height="27" rx="4" fill="white"/>
<path d="M21.5312 11.5312L20.8125 10.8125C20.4062 10.375 19.7812 10.2812 19.25 10.4688L17.5312 8.75C17.7188 8.21875 17.625 7.59375 17.1875 7.1875L16.4688 6.46875C15.875 5.875 14.9375 5.875 14.3438 6.46875L11.0938 9.6875C10.5312 10.2812 10.5312 11.2188 11.0938 11.8125L11.8438 12.5312C12.25 12.9688 12.875 13.0938 13.4062 12.875L13.7188 13.2188L11.9688 14.9688C11.2812 14.2812 10.3438 14.375 9.78125 14.9375L6.4375 18.2812C5.84375 18.875 5.84375 19.8438 6.4375 20.4062L7.59375 21.5625C8.15625 22.1562 9.125 22.1562 9.71875 21.5625L13.0625 18.2188C13.625 17.6562 13.7188 16.7188 13.0312 16.0312L14.7812 14.2812L15.125 14.5938C14.9062 15.125 15.0312 15.75 15.4688 16.1562L16.25 16.9688C16.8125 17.5 17.6875 17.5 18.25 16.9688L21.5312 13.6562C22.125 13.0625 22.125 12.125 21.5312 11.5312ZM8.65625 20.5312L7.5 19.3438L10.8438 16L12 17.1562L8.65625 20.5312ZM17.25 15.8438L16.5312 15.0938L17 14.6562L13.3438 11L12.9062 11.4688L12.1562 10.75L15.4062 7.5L16.125 8.25L15.5938 8.75L19.25 12.4062L19.75 11.875L20.5 12.5938L17.25 15.8438Z" fill="#5452F6"/>
</svg>
