<svg width="21" height="21" viewBox="0 0 21 21" fill="none" xmlns="http://www.w3.org/2000/svg">
<path d="M0.742188 1.47656L4.80469 0.539062C5.23438 0.421875 5.70312 0.65625 5.89844 1.08594L7.77344 5.46094C7.92969 5.85156 7.8125 6.28125 7.5 6.55469L5.11719 8.50781C6.52344 11.4766 8.98438 13.9766 12.0312 15.4219L13.9844 13.0391C14.2578 12.7266 14.6875 12.6094 15.0781 12.7656L19.4531 14.6406C19.8828 14.8359 20.0781 15.3047 20 15.7344L19.0625 19.7969C18.9453 20.2266 18.5938 20.5 18.125 20.5C8.125 20.5 0 12.4141 0 2.375C0 1.94531 0.3125 1.59375 0.742188 1.47656ZM19.375 6.125H16.875V8.625C16.875 8.97656 16.6016 9.25 16.25 9.25H15C14.6875 9.25 14.375 8.97656 14.375 8.625V6.125H11.875C11.5625 6.125 11.25 5.85156 11.25 5.5V4.25C11.25 3.9375 11.5625 3.625 11.875 3.625H14.375V1.125C14.375 0.8125 14.6875 0.5 15 0.5H16.25C16.6016 0.5 16.875 0.8125 16.875 1.125V3.625H19.375C19.7266 3.625 20 3.9375 20 4.25V5.5C20 5.85156 19.7266 6.125 19.375 6.125Z" fill="#5452F6"/>
</svg>
