<svg width="27" height="27" viewBox="0 0 27 27" fill="none" xmlns="http://www.w3.org/2000/svg">
<rect width="27" height="27" rx="4" fill="white"/>
<path d="M14 6.25C9.71875 6.25 6.25 9.75 6.25 14C6.25 18.2812 9.71875 21.75 14 21.75C18.25 21.75 21.75 18.2812 21.75 14C21.75 9.75 18.25 6.25 14 6.25ZM14 20.25C10.5312 20.25 7.75 17.4688 7.75 14C7.75 10.5625 10.5312 7.75 14 7.75C17.4375 7.75 20.25 10.5625 20.25 14C20.25 17.4688 17.4375 20.25 14 20.25ZM17.4375 17.7188C15.7812 14.6875 15.875 14.8438 15.7812 14.7188C16.5312 14.2812 17 13.4062 17 12.4062C17 10.7812 16.0625 9.75 13.8438 9.75H11.375C11.1562 9.75 11 9.9375 11 10.125V17.875C11 18.0938 11.1562 18.25 11.375 18.25H12.5938C12.7812 18.25 12.9688 18.0938 12.9688 17.875V15.2812H13.9688L15.4375 18.0625C15.5 18.1875 15.625 18.2812 15.7812 18.2812V18.25H17.0938C17.4062 18.25 17.5625 17.9688 17.4375 17.7188ZM14 13.5H12.9688V11.5H13.8125C14.8125 11.5 15.0312 11.875 15.0312 12.5C15.0312 13.1562 14.6562 13.5 14 13.5Z" fill="#5452F6"/>
</svg>
