<svg width="36" height="22" viewBox="0 0 36 22" fill="none" xmlns="http://www.w3.org/2000/svg">
<path d="M35.8359 8.43762C35.7812 8.38293 35.6719 8.32825 35.5078 8.32825C33.5391 8.43762 30.8594 9.96887 28.7812 11.172C27.9062 11.6642 27.1406 12.1017 26.5391 12.3751C24.8438 13.1407 23.3672 13.797 22.0547 13.797C21.5078 13.797 21.0703 13.6329 20.7422 13.3048C20.25 12.7032 20.25 11.6642 20.4141 10.3517C20.6328 8.76575 20.4141 7.56262 19.9219 6.96106C19.5938 6.63293 19.1016 6.46887 18.5 6.52356C16.9688 6.57825 14.2891 8.65637 9.25781 13.5782L7.78125 15.0548L10.8984 7.12512C11.6094 5.32043 11.1172 3.297 9.58594 2.03918C8.38281 1.05481 6.35938 0.453247 4.28125 1.82043L1.21875 3.95325C1 4.06262 0.890625 4.33606 1.05469 4.55481L1.98438 6.08606C2.09375 6.19543 2.14844 6.30481 2.3125 6.30481C2.42188 6.3595 2.53125 6.30481 2.64062 6.25012L5.86719 4.00793C6.19531 3.84387 6.46875 3.7345 6.79688 3.7345C7.17969 3.7345 7.5625 3.89856 7.89062 4.172C8.4375 4.66418 8.65625 5.42981 8.38281 6.14075L2.85938 20.1407C2.69531 20.5236 2.75 21.0704 3.02344 21.4532C3.1875 21.7267 3.51562 22.0001 4.11719 22.0001C4.5 22.0001 4.82812 21.8907 5.04688 21.6173C7.45312 19.2111 13.7422 13.0314 16.9688 10.4064L17.7891 9.75012L17.6797 10.7892C17.5703 12.3204 17.5703 13.9611 18.7188 15.2736C19.4844 16.0939 20.6328 16.5314 22.0547 16.5314C23.9688 16.5314 25.7188 15.7111 27.6328 14.8907C28.1797 14.6173 29 14.1251 29.8203 13.6329C31.7344 12.4845 33.9219 11.2267 35.5625 11.0626C35.7812 11.0626 36 10.8439 36 10.6251V8.76575C36 8.65637 35.9453 8.547 35.8359 8.43762Z" fill="#CC380D"/>
</svg>
