<svg width="15" height="12" viewBox="0 0 15 12" fill="none" xmlns="http://www.w3.org/2000/svg">
<path d="M0.64 11.12C0.64 10.7973 0.64 10.4893 0.64 10.196C0.64 9.87333 0.654667 9.56533 0.684 9.272C0.801334 7.74667 1.13867 6.236 1.696 4.74C2.25333 3.244 2.928 1.85067 3.72 0.559998L6.888 1.572C6.272 2.86267 5.80267 4.168 5.48 5.488C5.18667 6.808 5.04 8.04 5.04 9.184C5.04 9.47733 5.04 9.8 5.04 10.152C5.06933 10.4747 5.09867 10.7973 5.128 11.12H0.64ZM8.648 11.12C8.648 10.7973 8.648 10.4893 8.648 10.196C8.648 9.87333 8.66267 9.56533 8.692 9.272C8.80933 7.74667 9.14667 6.236 9.704 4.74C10.2613 3.244 10.936 1.85067 11.728 0.559998L14.896 1.572C14.28 2.86267 13.8107 4.168 13.488 5.488C13.1947 6.808 13.048 8.04 13.048 9.184C13.048 9.47733 13.048 9.8 13.048 10.152C13.0773 10.4747 13.1067 10.7973 13.136 11.12H8.648Z" fill="#5452F6"/>
</svg>
