<svg width="27" height="27" viewBox="0 0 27 27" fill="none" xmlns="http://www.w3.org/2000/svg">
<rect width="27" height="27" rx="4" fill="white"/>
<path d="M21.4062 7.78125L20.2188 6.59375C19.8438 6.21875 19.3125 6 18.8125 6C18.3125 6 17.7812 6.21875 17.4062 6.59375L15.0625 8.9375L14 10L6.375 17.625L6 21.1875C5.9375 21.625 6.28125 22 6.71875 22C6.75 22 6.78125 22 6.8125 22L10.375 21.625L18 14L19.0625 12.9375L21.4062 10.5938C22.1875 9.8125 22.1875 8.5625 21.4062 7.78125ZM9.6875 20.1875L7.59375 20.4062L7.8125 18.3125L15.0312 11.0625L16 10.0938L17.9062 12L16.9375 12.9688L9.6875 20.1875ZM20.3438 9.53125L18.9688 10.9375L17.0625 9.03125L18.4688 7.65625C18.5938 7.53125 18.75 7.5 18.8125 7.5C18.875 7.5 19.0312 7.53125 19.1562 7.65625L20.3438 8.84375C20.5312 9.03125 20.5312 9.34375 20.3438 9.53125Z" fill="#5452F6"/>
</svg>
