<svg width="31" height="29" viewBox="0 0 31 29" fill="none" xmlns="http://www.w3.org/2000/svg">
<path d="M28.875 9.90625L20.8906 8.75781L17.2812 1.48438C16.6797 0.226562 14.8203 0.171875 14.1641 1.48438L10.6094 8.75781L2.57031 9.90625C1.14844 10.125 0.601562 11.875 1.64062 12.9141L7.38281 18.5469L6.01562 26.4766C5.79688 27.8984 7.32812 28.9922 8.58594 28.3359L15.75 24.5625L22.8594 28.3359C24.1172 28.9922 25.6484 27.8984 25.4297 26.4766L24.0625 18.5469L29.8047 12.9141C30.8438 11.875 30.2969 10.125 28.875 9.90625ZM21.2188 17.6172L22.5312 25.1641L15.75 21.6094L8.91406 25.1641L10.2266 17.6172L4.70312 12.2578L12.3047 11.1641L15.75 4.27344L19.1406 11.1641L26.7422 12.2578L21.2188 17.6172Z" fill="#CC380D"/>
</svg>
