<svg width="25" height="25" viewBox="0 0 25 25" fill="none" xmlns="http://www.w3.org/2000/svg">
<path d="M21.875 0.25H2.625C1.14844 0.25 0 1.45312 0 2.875V22.125C0 23.6016 1.14844 24.75 2.625 24.75H21.875C23.2969 24.75 24.5 23.6016 24.5 22.125V2.875C24.5 1.45312 23.2969 0.25 21.875 0.25ZM21.5469 22.125H2.95312C2.73438 22.125 2.625 22.0156 2.625 21.7969V3.20312C2.625 3.03906 2.73438 2.875 2.95312 2.875H21.5469C21.7109 2.875 21.875 3.03906 21.875 3.20312V21.7969C21.875 22.0156 21.7109 22.125 21.5469 22.125Z" fill="#CC380D"/>
</svg>
