<svg width="32" height="21" viewBox="0 0 32 21" fill="none" xmlns="http://www.w3.org/2000/svg">
<path d="M15.75 4.375C15.1484 4.42969 14.5469 4.48438 14 4.64844C14.2734 5.08594 14.3828 5.63281 14.4375 6.125C14.4375 7.82031 13.0156 9.1875 11.375 9.1875C10.8281 9.1875 10.2812 9.07812 9.89844 8.80469C9.73438 9.35156 9.625 9.89844 9.625 10.5C9.625 13.8906 12.3594 16.625 15.75 16.625C19.1406 16.625 21.875 13.8906 21.875 10.5C21.875 7.16406 19.1406 4.42969 15.75 4.42969V4.375ZM31.2812 9.73438C28.3281 3.9375 22.4219 0 15.75 0C9.02344 0 3.11719 3.9375 0.164062 9.73438C0.0546875 9.95312 0 10.2266 0 10.5C0 10.8281 0.0546875 11.1016 0.164062 11.3203C3.11719 17.1172 9.02344 21 15.75 21C22.4219 21 28.3281 17.1172 31.2812 11.3203C31.3906 11.1016 31.4453 10.8281 31.4453 10.5547C31.4453 10.2266 31.3906 9.95312 31.2812 9.73438ZM15.75 18.375C10.3359 18.375 5.35938 15.3672 2.73438 10.5C5.35938 5.63281 10.3359 2.625 15.75 2.625C21.1094 2.625 26.0859 5.63281 28.7109 10.5C26.0859 15.3672 21.1094 18.375 15.75 18.375Z" fill="#5A47DF"/>
</svg>
