<svg width="28" height="29" viewBox="0 0 28 29" fill="none" xmlns="http://www.w3.org/2000/svg">
<path d="M14 0.9375C6.50781 0.9375 0.4375 7.00781 0.4375 14.5C0.4375 21.9922 6.50781 28.0625 14 28.0625C21.4922 28.0625 27.5625 21.9922 27.5625 14.5C27.5625 7.00781 21.4922 0.9375 14 0.9375ZM14 25.4375C7.92969 25.4375 3.0625 20.5703 3.0625 14.5C3.0625 8.48438 7.92969 3.5625 14 3.5625C20.0156 3.5625 24.9375 8.48438 24.9375 14.5C24.9375 20.5703 20.0156 25.4375 14 25.4375ZM17.3359 19.75C17.6641 19.9688 18.0469 19.9141 18.2656 19.5859L19.3047 18.2188C19.5234 17.8906 19.4688 17.5078 19.1406 17.2891L15.5312 14.6094V6.84375C15.5312 6.51562 15.2031 6.1875 14.875 6.1875H13.125C12.7422 6.1875 12.4688 6.51562 12.4688 6.84375V15.8672C12.4688 16.0312 12.5234 16.25 12.6875 16.3594L17.3359 19.75Z" fill="#5A47DF"/>
</svg>
