<svg width="22" height="21" viewBox="0 0 22 21" fill="none" xmlns="http://www.w3.org/2000/svg">
<path d="M1.625 10.6953C0.726562 11.2031 0.804688 12.5312 1.74219 12.9219L7.25 15.1875V19.25C7.25 19.9531 7.79688 20.5 8.5 20.5C8.89062 20.5 9.24219 20.3438 9.47656 20.0703L11.8984 17.1406L16.7422 19.1719C17.4844 19.4844 18.3438 18.9766 18.4609 18.1953L20.9609 1.94531C21.0391 1.47656 20.8438 1.00781 20.4531 0.734375C20.0625 0.460938 19.5156 0.460938 19.125 0.695312L1.625 10.6953ZM3.65625 11.6719L16.9766 4.05469L8.42188 13.625L8.46094 13.6641L3.65625 11.6719ZM16.7422 17.1406L10.2188 14.4062L18.5781 5.07031L16.7422 17.1406Z" fill="white"/>
</svg>
