<svg width="28" height="29" viewBox="0 0 28 29" fill="none" xmlns="http://www.w3.org/2000/svg">
<path d="M13.5625 0.9375C6.07031 0.9375 0 7.00781 0 14.5C0 21.9922 6.07031 28.0625 13.5625 28.0625C21.0547 28.0625 27.125 21.9922 27.125 14.5C27.125 7.00781 21.0547 0.9375 13.5625 0.9375ZM21.2734 22.2656C19.1953 24.3438 16.4609 25.4375 13.5625 25.4375C10.6094 25.4375 7.875 24.3438 5.79688 22.2656C3.71875 20.1875 2.625 17.4531 2.625 14.5C2.625 11.6016 3.71875 8.86719 5.79688 6.78906C7.875 4.71094 10.6094 3.5625 13.5625 3.5625C16.4609 3.5625 19.1953 4.71094 21.2734 6.78906C23.3516 8.86719 24.5 11.6016 24.5 14.5C24.5 17.4531 23.3516 20.1875 21.2734 22.2656ZM18.7578 11.2188L20.6172 9.03125C21.0547 8.48438 20.3984 7.66406 19.7422 8.04688L15.3672 10.6719C14.9844 10.9453 14.9844 11.5469 15.3672 11.8203L19.7422 14.4453C20.3984 14.8281 21.0547 14.0078 20.6172 13.4609L18.7578 11.2188ZM7.32812 14.4453L11.7031 11.8203C12.1406 11.5469 12.1406 10.9453 11.7031 10.6719L7.32812 8.04688C6.67188 7.66406 6.01562 8.48438 6.45312 9.03125L8.3125 11.2188L6.45312 13.4609C6.01562 14.0078 6.67188 14.8281 7.32812 14.4453ZM19.7969 16.25H7.27344C6.83594 16.25 6.50781 16.6328 6.5625 17.0703C6.94531 20.3516 9.78906 22.8125 13.1797 22.8125H13.8906C17.3359 22.8125 20.125 20.3516 20.5078 17.0703C20.5625 16.6328 20.2344 16.25 19.7969 16.25Z" fill="#5452F6"/>
</svg>
