<svg width="27" height="27" viewBox="0 0 27 27" fill="none" xmlns="http://www.w3.org/2000/svg">
<rect width="27" height="27" rx="4" fill="white"/>
<path d="M22.25 8H8.5C7.84375 8 7.28125 8.4375 7.0625 9H5.75C5.3125 9 5 9.34375 5 9.75V18.25C5 19.2188 5.78125 20 6.75 20H22.25C22.6562 20 23 19.6875 23 19.25V8.75C23 8.34375 22.6562 8 22.25 8ZM6.5 18.25V10.5H7V18.25C7 18.4062 6.875 18.5 6.75 18.5C6.59375 18.5 6.5 18.4062 6.5 18.25ZM21.5 18.5H8.46875C8.46875 18.4375 8.5 18.3438 8.5 18.25V9.5H21.5V18.5ZM10.375 14.75H14.625C14.8125 14.75 15 14.5938 15 14.375V11.375C15 11.1875 14.8125 11 14.625 11H10.375C10.1562 11 10 11.1875 10 11.375V14.375C10 14.5938 10.1562 14.75 10.375 14.75ZM11.25 12.25H13.75V13.5H11.25V12.25ZM10 16.625C10 16.8438 10.1562 17 10.375 17H14.625C14.8125 17 15 16.8438 15 16.625V15.875C15 15.6875 14.8125 15.5 14.625 15.5H10.375C10.1562 15.5 10 15.6875 10 15.875V16.625ZM16 16.625C16 16.8438 16.1562 17 16.375 17H19.625C19.8125 17 20 16.8438 20 16.625V15.875C20 15.6875 19.8125 15.5 19.625 15.5H16.375C16.1562 15.5 16 15.6875 16 15.875V16.625ZM16 12.125C16 12.3438 16.1562 12.5 16.375 12.5H19.625C19.8125 12.5 20 12.3438 20 12.125V11.375C20 11.1875 19.8125 11 19.625 11H16.375C16.1562 11 16 11.1875 16 11.375V12.125ZM16 14.375C16 14.5938 16.1562 14.75 16.375 14.75H19.625C19.8125 14.75 20 14.5938 20 14.375V13.625C20 13.4375 19.8125 13.25 19.625 13.25H16.375C16.1562 13.25 16 13.4375 16 13.625V14.375Z" fill="#5452F6"/>
</svg>
