<svg width="120" height="34" viewBox="0 0 120 34" fill="none" xmlns="http://www.w3.org/2000/svg">
<g clip-path="url(#clip0_553_1105)">
<path d="M51.1844 31.949C52.3988 31.949 53.3238 31.7181 53.9596 31.2563C54.5953 30.7945 54.9131 30.1003 54.9131 29.1767C54.9131 28.6188 54.7977 28.1413 54.5668 27.7469C54.3358 27.3525 54.0265 27.0054 53.6417 26.7071C53.2554 26.4088 52.8221 26.1492 52.3403 25.9269C51.8586 25.706 51.3668 25.4981 50.8665 25.3059C50.2878 25.075 49.7348 24.8154 49.2045 24.5257C48.6743 24.2374 48.2025 23.9004 47.7877 23.5146C47.3729 23.1303 47.0451 22.6771 46.8056 22.1565C46.5648 21.6358 46.4436 21.0206 46.4436 20.3078C46.4436 18.7474 46.9354 17.5298 47.9174 16.6535C48.8995 15.7772 50.2679 15.3384 52.0225 15.3384C52.5043 15.3384 52.9803 15.3728 53.4535 15.4388C53.9253 15.5062 54.3644 15.5879 54.7692 15.684C55.174 15.7801 55.5346 15.8963 55.8524 16.0311C56.1703 16.1659 56.4254 16.3007 56.6179 16.4355L55.8667 18.429C55.4804 18.1981 54.9516 17.9672 54.2774 17.7363C53.6032 17.5054 52.8506 17.3893 52.0225 17.3893C51.1943 17.3893 50.4033 17.6058 49.7676 18.0389C49.1318 18.4721 48.814 19.1217 48.814 19.9894C48.814 20.4899 48.9052 20.9145 49.0891 21.2601C49.2715 21.6072 49.5224 21.9098 49.8402 22.1708C50.1581 22.4304 50.5287 22.667 50.9535 22.8793C51.3768 23.0915 51.84 23.3038 52.3403 23.5146C53.073 23.823 53.7429 24.1313 54.3487 24.4397C54.9559 24.748 55.4761 25.1137 55.9094 25.5368C56.3428 25.9613 56.6791 26.4618 56.9215 27.0398C57.1623 27.6178 57.2835 28.3205 57.2835 29.1495C57.2835 30.7099 56.759 31.9088 55.7085 32.7464C54.658 33.584 53.1499 34.0027 51.1844 34.0027C50.5487 34.0027 49.9514 33.9597 49.3927 33.8722C48.8339 33.7862 48.3379 33.6743 47.9046 33.5395C47.4713 33.4047 47.0907 33.2699 46.7629 33.1351C46.4351 33.0003 46.1842 32.8755 46.0117 32.7593L46.7344 30.7945C47.1192 31.0067 47.6879 31.252 48.4391 31.5317C49.1903 31.8113 50.1054 31.9504 51.1844 31.9504V31.949Z" fill="#FF511E"/>
<path d="M66.5024 19.9004C68.3141 19.9004 69.7109 20.464 70.693 21.5913C71.6751 22.7185 72.1668 24.4281 72.1668 26.7199V27.5574H62.5713C62.6682 28.9443 63.1243 29.9984 63.9439 30.7212C64.7621 31.444 65.9138 31.804 67.3976 31.804C68.2457 31.804 68.9683 31.7366 69.5656 31.6018C70.1628 31.467 70.616 31.3221 70.9239 31.1687L71.2418 33.1909C70.9524 33.3458 70.4322 33.5093 69.681 33.6814C68.9298 33.8549 68.0817 33.9409 67.1382 33.9409C65.9822 33.9409 64.9659 33.7631 64.0893 33.406C63.2127 33.0503 62.4858 32.5641 61.9071 31.9474C61.3284 31.3307 60.8951 30.595 60.6071 29.7374C60.3178 28.8812 60.1738 27.9504 60.1738 26.9493C60.1738 25.7547 60.3563 24.7149 60.7226 23.8286C61.0889 22.9422 61.5707 22.2108 62.1679 21.6328C62.7651 21.0549 63.4393 20.6218 64.1905 20.332C64.9417 20.0438 65.7128 19.8989 66.5024 19.8989V19.9004ZM69.7394 25.6213C69.7394 24.4854 69.4401 23.5848 68.8429 22.9193C68.2457 22.2553 67.456 21.9225 66.4725 21.9225C65.9138 21.9225 65.4078 22.0287 64.9545 22.2409C64.5012 22.4532 64.1107 22.7329 63.7843 23.0785C63.4564 23.4256 63.1956 23.82 63.0046 24.2631C62.8122 24.7063 62.6867 25.1595 62.6283 25.6213H69.738H69.7394Z" fill="#FF511E"/>
<path d="M83.6143 14.0075L86.0131 13.603V33.2498C85.4929 33.4047 84.8287 33.5581 84.0191 33.7116C83.2095 33.8651 82.2659 33.9425 81.1869 33.9425C80.2233 33.9425 79.3467 33.779 78.5571 33.4506C77.766 33.1236 77.0918 32.656 76.5345 32.0494C75.9757 31.4427 75.5424 30.7056 75.2331 29.8393C74.9252 28.9731 74.7713 28.0007 74.7713 26.9208C74.7713 25.8408 74.901 24.9316 75.1618 24.0754C75.4213 23.2192 75.8018 22.482 76.3036 21.8653C76.8039 21.2486 77.4068 20.7682 78.1095 20.4211C78.8122 20.074 79.6175 19.9005 80.5226 19.9005C81.2353 19.9005 81.8611 19.9865 82.4013 20.1601C82.9401 20.3336 83.3449 20.5172 83.6157 20.7094V14.006L83.6143 14.0075ZM83.6143 23.0499C83.3449 22.8004 82.95 22.5638 82.4298 22.3415C81.9095 22.1206 81.3693 22.0087 80.8106 22.0087C80.1749 22.0087 79.6304 22.1335 79.1771 22.3845C78.7238 22.6355 78.3532 22.9768 78.0639 23.4099C77.7745 23.843 77.5622 24.3636 77.4282 24.9703C77.2928 25.577 77.2258 26.2266 77.2258 26.9208C77.2258 28.4812 77.5921 29.6844 78.3247 30.532C79.0574 31.3796 80.0109 31.8027 81.1869 31.8027C81.7841 31.8027 82.2901 31.774 82.7049 31.7167C83.1197 31.6593 83.4218 31.6005 83.6157 31.5431V23.0485L83.6143 23.0499Z" fill="#FF511E"/>
<path d="M95.6956 19.9005C97.5073 19.9005 98.9041 20.4641 99.8862 21.5914C100.868 22.7186 101.36 24.4282 101.36 26.72V27.5575H91.7645C91.8614 28.9444 92.3175 29.9985 93.1371 30.7213C93.9553 31.4442 95.1069 31.8041 96.5907 31.8041C97.4388 31.8041 98.1615 31.7367 98.7587 31.6019C99.356 31.4671 99.8092 31.3223 100.117 31.1688L100.435 33.191C100.146 33.3459 99.6254 33.5094 98.8742 33.6815C98.123 33.855 97.2749 33.9411 96.3313 33.9411C95.1754 33.9411 94.1591 33.7632 93.2825 33.4061C92.4059 33.0504 91.679 32.5643 91.1003 31.9476C90.5216 31.3309 90.0882 30.5951 89.8003 29.7375C89.511 28.8813 89.367 27.9505 89.367 26.9495C89.367 25.7548 89.5495 24.715 89.9158 23.8287C90.2821 22.9424 90.7639 22.2109 91.3611 21.633C91.9583 21.055 92.6325 20.6219 93.3837 20.3322C94.1348 20.0439 94.906 19.899 95.6956 19.899V19.9005ZM98.9326 25.6214C98.9326 24.4855 98.6333 23.5849 98.0361 22.9194C97.4388 22.2554 96.6492 21.9227 95.6657 21.9227C95.1069 21.9227 94.6009 22.0288 94.1477 22.2411C93.6944 22.4533 93.3039 22.733 92.9775 23.0786C92.6496 23.4257 92.3888 23.8201 92.1978 24.2632C92.0054 24.7064 91.8799 25.1596 91.8215 25.6214H98.9312H98.9326Z" fill="#FF511E"/>
<path d="M9.64739 25.63C9.22549 25.2112 8.71093 24.8441 8.1194 24.5386C7.51647 24.2274 6.84228 23.9133 6.11962 23.6035C5.61646 23.387 5.14752 23.169 4.72419 22.9538C4.29515 22.7359 3.91173 22.4892 3.58674 22.2195C3.25606 21.9456 2.99237 21.6201 2.80279 21.2543C2.61037 20.8858 2.51344 20.4297 2.51344 19.9005C2.51344 18.9769 2.85411 18.2741 3.52403 17.8095C4.1797 17.3563 4.96222 17.1254 5.85307 17.1254C6.69119 17.1254 7.46516 17.2458 8.14934 17.4853C8.75369 17.6962 9.24972 17.9099 9.62886 18.1221L10.2888 16.3423C10.1149 16.229 9.89398 16.1157 9.63029 16.0024C9.32099 15.869 8.96322 15.7529 8.56697 15.6568C8.16929 15.5607 7.73028 15.4775 7.26418 15.4101C6.79952 15.3427 6.32487 15.3083 5.85165 15.3083C4.13979 15.3083 2.78854 15.7457 1.83497 16.6105C0.885679 17.471 0.405331 18.6857 0.405331 20.2232C0.405331 20.9245 0.522211 21.5383 0.754546 22.046C0.98688 22.5566 1.30759 23.0069 1.70811 23.3841C2.11149 23.7656 2.57901 24.1055 3.09784 24.3923C3.62095 24.682 4.17542 24.9474 4.74557 25.1783C5.24159 25.3719 5.74047 25.5856 6.22509 25.8122C6.71257 26.0402 7.15871 26.3127 7.55211 26.6196C7.94978 26.9323 8.27192 27.3008 8.50995 27.7139C8.75226 28.1341 8.87485 28.6461 8.87485 29.2341C8.87485 30.2136 8.53561 30.9609 7.86711 31.4542C7.21145 31.939 6.25218 32.1842 5.01496 32.1842C3.92456 32.1842 2.98524 32.0379 2.2241 31.7496C1.55132 31.4958 1.01824 31.2663 0.63624 31.0655L0.00195312 32.8167C0.163019 32.9142 0.378249 33.0189 0.643367 33.1308C0.966925 33.267 1.3475 33.4033 1.77368 33.5381C2.20129 33.6729 2.69589 33.7847 3.24323 33.8708C3.79342 33.9568 4.38922 34.0013 5.01496 34.0013C6.94063 34.0013 8.43441 33.5811 9.4564 32.7536C10.4684 31.9332 10.983 30.7386 10.983 29.204C10.983 28.3851 10.8647 27.6809 10.6323 27.113C10.3986 26.545 10.0679 26.0459 9.65024 25.6315L9.64739 25.63Z" fill="#FF511E"/>
<path d="M21.1665 32.0367C20.9071 32.0568 20.6462 32.0654 20.3911 32.0654C19.1952 32.0654 18.3272 31.6968 17.8126 30.9697C17.308 30.2569 17.0515 29.045 17.0515 27.3684V20.4787H14.9434V27.8891C14.9434 28.7797 15.0303 29.6058 15.1999 30.3444C15.3681 31.0744 15.6617 31.7126 16.0722 32.2446C16.4813 32.7739 17.0187 33.1883 17.6687 33.4766C18.3229 33.7663 19.161 33.9126 20.1588 33.9126C21.3019 33.9126 22.3096 33.8351 23.1563 33.6831C23.9559 33.5397 24.613 33.4035 25.1148 33.2773V20.4801H22.9781V31.7685L22.8883 31.7986C22.8228 31.8201 22.7059 31.8445 22.522 31.8761C22.3481 31.9047 22.1414 31.9349 21.9091 31.9635C21.6725 31.9937 21.4216 32.018 21.1651 32.0367H21.1665Z" fill="#FF511E"/>
<path d="M38.6784 21.5382C38.2708 21.1122 37.7277 20.7737 37.0663 20.5314C36.3993 20.2876 35.564 20.1642 34.5819 20.1642C33.7253 20.1642 32.9114 20.2216 32.1588 20.3363C31.4789 20.4396 30.9729 20.5586 30.6508 20.692L30.9031 22.403C31.2252 22.3026 31.6556 22.2007 32.1887 22.1018C32.8102 21.9856 33.5471 21.9268 34.3809 21.9268C35.0509 21.9268 35.6082 22.0229 36.0386 22.2122C36.4705 22.403 36.8183 22.664 37.072 22.9881C37.3243 23.3108 37.4982 23.6736 37.588 24.0652C37.6764 24.4481 37.722 24.8525 37.722 25.2641V26.0945L37.5609 26.0572C36.6686 25.8493 35.745 25.7432 34.8157 25.7432C34.1344 25.7432 33.4473 25.8149 32.776 25.9569C32.1103 26.0974 31.5117 26.3297 30.9971 26.6481C30.4868 26.9636 30.0635 27.3824 29.7385 27.893C29.4164 28.3993 29.2539 29.0317 29.2539 29.7732C29.2539 30.6136 29.4135 31.3106 29.7271 31.8456C30.0421 32.382 30.464 32.8079 30.9814 33.1134C31.5046 33.4217 32.1118 33.6397 32.7874 33.7616C33.4716 33.885 34.1828 33.9481 34.9026 33.9481C35.8533 33.9481 36.7955 33.8807 37.702 33.7473C38.5573 33.6211 39.2628 33.5121 39.8016 33.4203V25.1523C39.8016 24.4165 39.7161 23.7281 39.5465 23.1071C39.3797 22.4962 39.0889 21.9713 38.6827 21.5453L38.6784 21.5382ZM37.7191 31.9574L37.6122 31.9775C37.2987 32.0363 36.901 32.0851 36.4278 32.1238C35.9574 32.1625 35.4143 32.1826 34.8128 32.1826C33.7923 32.1826 32.967 32.0062 32.3626 31.6591C31.734 31.2992 31.4148 30.6538 31.4148 29.7402C31.4148 29.2884 31.5302 28.9069 31.7597 28.6058C31.9821 28.3118 32.27 28.0723 32.6121 27.8901C32.9499 27.7108 33.3433 27.5846 33.7794 27.5158C34.2085 27.447 34.6532 27.4125 35.1007 27.4125C35.5854 27.4125 36.0529 27.4427 36.4905 27.5C36.9281 27.5588 37.3101 27.6377 37.6251 27.7367L37.7177 27.7653V31.9574H37.7191Z" fill="#FF511E"/>
<path d="M114.902 0H111.96H111.497H108.112H106.882H101.361L106.438 5.10853H110.307H111.537H114.922H115.384H119.999L114.902 0Z" fill="#FF511E"/>
<path opacity="0.62" d="M101.361 0L106.438 5.10853V12.7498L101.361 7.63985V0Z" fill="#FF511E"/>
<path d="M106.458 20.3983H109.4H109.864H113.249H114.479H119.999L114.922 15.2883H111.054H109.824H106.438H105.975H101.361L106.458 20.3983Z" fill="#FF511E"/>
<path opacity="0.62" d="M119.999 20.3983L114.922 15.2883V7.64703L119.999 12.757V20.3983Z" fill="#FF511E"/>
<path d="M113.22 7.64697H108.143V12.7555H113.22V7.64697Z" fill="#FF511E"/>
</g>
<defs>
<clipPath id="clip0_553_1105">
<rect width="120" height="34" fill="white"/>
</clipPath>
</defs>
</svg>
